<svg width="400" height="400" viewBox="0 0 400 400" fill="none" xmlns="http://www.w3.org/2000/svg">
<path d="M182.817 52C175.691 73.3006 175.484 98.472 182.817 119.239" stroke="black" stroke-width="7" stroke-linecap="round" stroke-linejoin="round"/>
<path d="M181 142C131.132 168.497 124 264.825 124 318" stroke="black" stroke-width="7" stroke-linecap="round" stroke-linejoin="round"/>
<path d="M227.239 52C231.754 74.2378 232.159 95.7439 225.113 117.07" stroke="black" stroke-width="7" stroke-linecap="round" stroke-linejoin="round"/>
<path d="M229 142C276.504 182.522 276 262.799 276 318" stroke="black" stroke-width="7" stroke-linecap="round" stroke-linejoin="round"/>
<path d="M195.83 68.2395C208.074 64.2077 219.673 65.9852 225.112 72.6057" stroke="black" stroke-width="7" stroke-linecap="round" stroke-linejoin="round"/>
<path d="M182.816 91.2825C191.77 90.2812 197.885 92.3488 204.506 98.6338" stroke="black" stroke-width="7" stroke-linecap="round" stroke-linejoin="round"/>
<path d="M204.506 98.6338C210.831 90.8184 216.326 89.1498 224.027 93.1096" stroke="black" stroke-width="7" stroke-linecap="round" stroke-linejoin="round"/>
<path d="M180.326 302.521C180.326 315.073 183.326 347.441 177.41 347.441C176.617 348.047 175.292 348.118 171.549 348.047" stroke="black" stroke-width="7" stroke-linecap="round" stroke-linejoin="round"/>
<path d="M217.521 302.521C217.521 319.035 217.353 347.097 220.161 348.009C220.618 348.157 224.481 347.986 225.62 348.009" stroke="black" stroke-width="7" stroke-linecap="round" stroke-linejoin="round"/>
</svg>
