<svg width="1929" height="1060" viewBox="0 0 1929 1060" fill="none" xmlns="http://www.w3.org/2000/svg">
<path d="M1225.48 856.735C1156.34 695.707 1043.67 665.057 1043.67 665.057L1169.4 629.995C1169.4 629.995 1242.66 659.078 1279.76 752.421" fill="#7267FF"/>
<path d="M1255.32 784.117C1255.32 784.117 1320.91 659.253 1513.23 685.549C1513.23 685.549 1249.16 776.744 1208.64 1023.8" fill="#7267FF"/>
<path d="M1208.65 821.498C1208.65 821.498 1162.9 923.549 1198.37 1010.62C1203.89 1024.21 1218.51 1031.87 1232.91 1028.91C1265.42 1022.29 1330.49 987.983 1427.26 880.418C1516.95 778.89 1542.84 696.286 1513.23 685.547" fill="#7267FF"/>
<path d="M861.338 923.086C968.032 780.808 941.039 660.646 941.039 660.646L1044.37 649.675C1044.37 649.675 1065.09 854.182 949.515 957.974" fill="#7267FF"/>
<path d="M879.509 897.137C825.059 837.869 750.931 829.684 750.931 829.684L815.249 1054.22H1107.41C1107.41 1054.22 1084.13 946.653 979.528 925.059" fill="#7267FF"/>
<path d="M781.692 220.343L1380.7 141.28C1405.02 138.087 1427.37 155.212 1430.62 179.534L1478.63 543.444C1481.82 567.767 1464.7 590.116 1440.38 593.367L708.666 689.902C684.344 693.095 661.995 675.971 658.744 651.648L610.737 287.738C610.737 287.738 589.143 245.768 781.692 220.343Z" fill="#7267FF"/>
<path d="M807.121 250.179L1359.05 177.327C1381.46 174.367 1401.89 188.937 1404.68 209.835L1445.89 522.255C1448.68 543.153 1432.72 562.483 1410.25 565.444L736.011 654.433C713.604 657.394 693.17 642.823 690.384 621.926L649.169 309.505C649.227 309.505 629.665 273.573 807.121 250.179Z" fill="#E2FFFE"/>
<path d="M737.751 248.902C800.328 229.223 835.1 162.467 815.363 99.8897C795.626 37.3127 728.986 2.54131 666.409 22.22L358.284 116.376C295.707 136.054 285.084 193.117 304.82 255.694C324.499 318.271 391.256 353.042 453.833 333.305L664.841 271.773L768.169 345.147L737.751 248.902Z" fill="black" stroke="black" stroke-width="6.99" stroke-miterlimit="10" stroke-linecap="round" stroke-linejoin="round"/>
<path d="M707.044 258.54C769.621 238.861 804.393 172.104 784.656 109.527C764.919 46.9503 698.279 12.1789 635.702 31.9156L351.726 116.377C289.149 136.114 254.377 202.812 274.114 265.389C293.792 327.966 360.549 362.738 423.126 343.001L634.135 281.469L737.462 354.843L707.044 258.54Z" fill="#FFD0FF" stroke="black" stroke-width="6.99" stroke-miterlimit="10" stroke-linecap="round" stroke-linejoin="round"/>
<path d="M1044.37 648.34C1044.37 648.34 1065.09 852.847 949.517 956.639" stroke="black" stroke-width="6.99" stroke-miterlimit="10" stroke-linecap="round" stroke-linejoin="round"/>
<path d="M941.038 659.368C941.038 659.368 968.031 779.53 861.337 921.808" stroke="black" stroke-width="6.99" stroke-miterlimit="10" stroke-linecap="round" stroke-linejoin="round"/>
<path d="M879.509 895.861C825.058 836.593 750.93 828.408 750.93 828.408L815.248 1052.94H1107.41C1107.41 1052.94 1084.13 945.377 979.527 923.782" stroke="black" stroke-width="6.99" stroke-miterlimit="10" stroke-linecap="round" stroke-linejoin="round"/>
<path d="M816.637 1055.79C681.615 1058.17 586.53 1053.12 585.66 1035.64C584.847 1019.27 675.288 1000.81 796.843 989.495L805.086 1018.93L816.637 1055.79Z" fill="black"/>
<path d="M1045.41 664.187C1045.41 664.187 1158.03 694.836 1227.22 855.865" stroke="black" stroke-width="6.99" stroke-miterlimit="10" stroke-linecap="round" stroke-linejoin="round"/>
<path d="M1171.09 629.065C1171.09 629.065 1244.35 658.148 1281.44 751.491" stroke="black" stroke-width="6.99" stroke-miterlimit="10" stroke-linecap="round" stroke-linejoin="round"/>
<path d="M1257.06 783.246C1257.06 783.246 1322.65 658.382 1514.97 684.679C1514.97 684.679 1250.9 775.874 1210.38 1022.93" stroke="black" stroke-width="6.99" stroke-miterlimit="10" stroke-linecap="round" stroke-linejoin="round"/>
<path d="M1210.33 820.628C1210.33 820.628 1164.59 922.679 1200.06 1009.75C1205.57 1023.34 1220.2 1031 1234.59 1028.04C1267.1 1021.42 1332.18 987.113 1428.94 879.548C1518.63 778.02 1544.52 695.416 1514.91 684.677" stroke="black" stroke-width="6.99" stroke-miterlimit="10" stroke-linecap="round" stroke-linejoin="round"/>
<path d="M1463.25 837.752C1388.31 949.09 1242.6 1050.39 1213.17 1024.61C1200.87 1013.82 1244.98 868.228 1351.97 782.025L1443.92 718.113C1451.52 712.946 1477.12 701.278 1485.31 697.041C1521.47 678.233 1528.03 688.217 1526.7 711.553C1525.94 724.15 1523.21 739.881 1516.94 750.91L1463.25 837.752Z" fill="black"/>
<path d="M1472.48 1059.91C1567.57 1059.91 1644.65 1046.96 1644.65 1031C1644.65 1015.03 1567.57 1002.09 1472.48 1002.09C1377.39 1002.09 1300.31 1015.03 1300.31 1031C1300.31 1046.96 1377.39 1059.91 1472.48 1059.91Z" fill="black"/>
<path d="M1595.02 496.075C1540.11 480.634 1508.12 423.572 1523.56 368.599C1539 313.627 1596.07 281.7 1651.04 297.141L1822.52 345.437C1877.43 360.879 1909.41 417.941 1893.97 472.913C1878.53 527.886 1821.47 559.813 1766.5 544.372L1659.11 514.128L1571.28 580.653L1595.02 496.075Z" fill="black" stroke="black" stroke-width="6.99" stroke-miterlimit="10" stroke-linecap="round" stroke-linejoin="round"/>
<path d="M1621.95 503.68C1567.04 488.239 1535.05 431.177 1550.49 376.204C1565.94 321.232 1623 289.304 1677.97 304.746L1849.45 353.042C1904.36 368.484 1936.35 425.546 1920.91 480.518C1905.47 535.491 1848.4 567.418 1793.43 551.977L1686.04 521.733L1598.21 588.258L1621.95 503.68Z" fill="#FBFF8D" stroke="black" stroke-width="6.99" stroke-miterlimit="10" stroke-linecap="round" stroke-linejoin="round"/>
<path d="M1630.54 407.144L1633.79 395.651L1701.07 376.146L1696.66 391.878L1647.61 405.171L1647.32 406.158L1682.15 443.251L1677.74 458.982L1630.54 407.144Z" fill="black"/>
<path d="M1686.56 483.073L1760.63 369.006L1773.81 372.721L1699.74 486.788L1686.56 483.073Z" fill="black"/>
<path d="M1767.6 467.284L1816.65 453.817L1816.94 452.83L1782.05 415.911L1786.46 400.179L1833.66 451.959L1830.41 463.453L1763.13 482.958L1767.6 467.284Z" fill="black"/>
<path d="M671.573 134.721C671.573 134.721 644.406 185.862 608.299 210.765C583.454 227.89 548.857 217.789 536.086 190.448C503.056 119.744 576.837 97.1629 588.562 119.86C600.927 143.834 529.991 276.941 465.556 226.554C401.122 176.168 489.995 82.0701 484.829 153.935C479.662 225.8 387.771 268.814 387.771 268.814" stroke="black" stroke-width="6.99" stroke-miterlimit="10" stroke-linecap="round" stroke-linejoin="round"/>
<path d="M610.795 146.622L673.256 132.516L690.322 189.694" stroke="black" stroke-width="6.99" stroke-miterlimit="10" stroke-linecap="round" stroke-linejoin="round"/>
<path d="M381.792 285.183C389.165 285.183 395.143 279.206 395.143 271.832C395.143 264.458 389.165 258.481 381.792 258.481C374.418 258.481 368.44 264.458 368.44 271.832C368.44 279.206 374.418 285.183 381.792 285.183Z" fill="black" stroke="black" stroke-width="6.99" stroke-miterlimit="10" stroke-linecap="round" stroke-linejoin="round"/>
<path d="M782.39 220.343L1381.46 141.28C1405.78 138.087 1428.13 155.212 1431.38 179.534L1479.39 543.444C1482.58 567.767 1465.45 590.116 1441.13 593.367L709.364 689.902C685.042 693.095 662.693 675.971 659.442 651.648L611.436 287.738" stroke="black" stroke-width="6.99" stroke-miterlimit="10" stroke-linecap="round" stroke-linejoin="round"/>
<path d="M737.579 259.294L1363.06 176.864C1381.29 174.484 1398 187.313 1400.44 205.541L1442.82 526.436C1445.2 544.664 1432.37 561.382 1414.14 563.82L727.769 654.435C709.541 656.815 692.823 643.986 690.385 625.758L645.978 289.944" stroke="black" stroke-width="6.99" stroke-miterlimit="10" stroke-linecap="round" stroke-linejoin="round"/>
<path d="M1329.5 209.548L1363.23 235.438" stroke="black" stroke-width="6.99" stroke-miterlimit="10" stroke-linecap="round" stroke-linejoin="round"/>
<path d="M1359.34 205.599L1333.39 239.384" stroke="black" stroke-width="6.99" stroke-miterlimit="10" stroke-linecap="round" stroke-linejoin="round"/>
<path d="M1267.8 248.033L1310 242.46" stroke="black" stroke-width="6.99" stroke-miterlimit="10" stroke-linecap="round" stroke-linejoin="round"/>
<path d="M1153.44 479.413C1202.23 479.413 1241.79 439.857 1241.79 391.062C1241.79 342.268 1202.23 302.712 1153.44 302.712C1104.64 302.712 1065.09 342.268 1065.09 391.062C1065.09 439.857 1104.64 479.413 1153.44 479.413Z" fill="white" stroke="black" stroke-width="6.99" stroke-miterlimit="10" stroke-linecap="round" stroke-linejoin="round"/>
<path d="M1116.17 310.956C1160.4 290.348 1212.99 309.563 1233.54 353.796C1254.15 398.029 1234.94 450.622 1190.7 471.171L1116.17 310.956Z" fill="black"/>
<path d="M974.88 502.981C1023.67 502.981 1063.23 463.425 1063.23 414.63C1063.23 365.835 1023.67 326.279 974.88 326.279C926.085 326.279 886.529 365.835 886.529 414.63C886.529 463.425 926.085 502.981 974.88 502.981Z" fill="white" stroke="black" stroke-width="6.99" stroke-miterlimit="10" stroke-linecap="round" stroke-linejoin="round"/>
<path d="M937.61 334.524C981.844 313.916 1034.44 333.131 1054.99 377.364C1075.59 421.598 1056.38 474.19 1012.15 494.74L937.61 334.524Z" fill="black"/>
<path d="M282.586 1056.31H3.9502C3.9502 1056.31 56.3105 934.288 192.668 934.288C242.59 934.288 282.586 973.587 282.586 1056.31Z" stroke="black" stroke-width="6.99" stroke-miterlimit="10" stroke-linecap="round" stroke-linejoin="round"/>
<path d="M205.148 935.566V1012.13V1056.31" stroke="black" stroke-width="6.99" stroke-miterlimit="10" stroke-linecap="round" stroke-linejoin="round"/>
<path d="M205.148 1015.67H278.813C278.813 1015.67 456.733 1023.97 467.066 952.574C480.185 862.191 409.365 835.547 401.122 851.801C390.383 872.93 451.509 949.613 538.931 900.736C626.353 851.859 530.572 715.153 573.528 664.07C607.603 623.551 657.932 640.618 657.932 640.618" stroke="black" stroke-width="6.99" stroke-miterlimit="10" stroke-linecap="round" stroke-linejoin="round"/>
<path d="M943.359 660.413L1045.82 645.494V662.27L944.172 697.448L943.359 660.413Z" fill="black"/>
<path d="M1045.82 645.493L1177.88 629.065L1184.27 634.928L1077.69 678.581L1046.81 664.592L1045.82 645.493Z" fill="black"/>
<path d="M877.938 894.176L858.491 922.156L861.626 879.142L877.938 894.176Z" fill="black"/>
<path d="M950.911 959.076L982.142 924.362L1010.82 933.302L950.911 959.076Z" fill="black"/>
<path d="M1254.1 782.837L1271.17 728.852L1281.44 749.633L1254.1 782.837Z" fill="black"/>
<path d="M1203.48 838.798L1210.33 823.995L1225.02 857.896L1203.48 838.798Z" fill="black"/>
<path d="M744.078 633.13L1071.07 605.557L723.935 653.331C723.935 653.331 694.795 652.344 691.312 623.668C687.829 594.992 657.179 354.842 657.179 354.842L709.249 598.997C717.202 627.615 727.767 635.394 744.078 633.13Z" fill="black"/>
<path d="M1110.43 92.8645C1086.63 30.5197 1020.1 -2.04586 961.823 20.245C903.541 42.5359 875.678 111.092 899.478 173.437" stroke="black" stroke-width="6.99" stroke-miterlimit="10" stroke-linecap="round"/>
<path d="M979.99 15.0781C932.215 33.3056 914.8 96.9274 938.485 158.982" stroke="black" stroke-width="6.99" stroke-miterlimit="10" stroke-linecap="round"/>
<path d="M978.601 13.2217C973.202 5.269 963.392 1.66995 954.626 4.97876C946.151 8.22951 941.275 16.9949 942.146 26.1086" stroke="black" stroke-width="6.99" stroke-miterlimit="10" stroke-linecap="round"/>
<path d="M1056.73 144.038C1139.86 112.914 1203.01 76.3408 1197.77 62.3497C1192.54 48.3586 1120.89 62.2474 1037.76 93.3713C954.623 124.495 891.474 161.068 896.712 175.059C901.949 189.05 973.591 175.162 1056.73 144.038Z" fill="black"/>
</svg>
