<svg width="241" height="241" viewBox="0 0 241 241" fill="none" xmlns="http://www.w3.org/2000/svg">
<rect x="47.959" y="48.6475" width="138.223" height="116.777" fill="#F8CEEE" stroke="black"/>
<rect x="56.1064" y="54.4492" width="121.928" height="86.5405" fill="#8E3AE2" stroke="black"/>
<path d="M106.429 169.936C107.285 167.48 109.602 165.834 112.203 165.834H122.32C124.962 165.834 127.305 167.531 128.129 170.041L131.463 180.199C132.761 184.153 129.816 188.22 125.654 188.22H108.663C104.455 188.22 101.505 184.067 102.89 180.094L106.429 169.936Z" fill="#8E3AE2" stroke="black"/>
<rect x="85.6807" y="182.466" width="62.7795" height="9.43665" rx="4.71833" fill="#51DA7F" stroke="black"/>
<path d="M165.287 111.711C154.903 83.2897 125.5 74.4006 109.74 78.3027L115.112 91.4185C124.916 88.7643 146.584 90.9756 158.334 119.664C168.719 145.021 194.532 147.382 205.727 143.137L201.072 131.77C201.072 131.77 175.671 140.132 165.287 111.711Z" fill="#EDB72B" stroke="black"/>
<path d="M159.208 119.304C148.824 90.8834 119.421 81.9943 103.661 85.8965L109.033 99.0122C118.837 96.3581 140.505 98.5693 152.255 127.258C162.64 152.615 188.453 154.976 199.648 150.731L194.992 139.364C194.992 139.364 169.592 147.726 159.208 119.304Z" fill="black" stroke="black"/>
<rect x="172.118" y="96.0986" width="6.75854" height="36.592" rx="3.37927" transform="rotate(180 172.118 96.0986)" fill="white" stroke="black"/>
</svg>
