<svg width="241" height="241" viewBox="0 0 241 241" fill="none" xmlns="http://www.w3.org/2000/svg">
<rect x="37.1514" y="72.9238" width="166.244" height="100.102" rx="12.7283" fill="#51DA7F" stroke="black"/>
<path d="M126.492 151.702C123.024 155.054 117.523 155.054 114.055 151.702L42.0987 82.1651C36.3126 76.5734 40.2709 66.7812 48.3174 66.7812L192.23 66.7812C200.277 66.7812 204.235 76.5734 198.449 82.1651L126.492 151.702Z" fill="#51DA7F" stroke="black"/>
<path d="M123.475 173.029V173.026C123.481 173.026 123.489 173.026 123.509 173.025C123.525 173.025 123.552 173.023 123.581 173.023L123.475 173.029ZM123.475 173.029H123.374H123.475ZM86.6493 142.495C86.6772 142.327 86.7038 142.162 86.7291 142C86.7545 142.162 86.7811 142.327 86.809 142.495C87.3874 145.972 88.5448 150.615 90.8638 155.27C93.1838 159.926 96.6712 164.602 101.911 168.122C105.759 170.706 110.537 172.657 116.462 173.526C110.536 174.395 105.757 176.346 101.909 178.931C96.6692 182.45 93.1821 187.126 90.8625 191.783C88.5438 196.437 87.3867 201.081 86.8086 204.557C86.7807 204.724 86.7542 204.889 86.7289 205.051C86.7037 204.889 86.6771 204.724 86.6493 204.557C86.0711 201.081 84.9141 196.437 82.5954 191.783C80.2758 187.126 76.7887 182.45 71.5489 178.931C67.7007 176.346 62.9231 174.395 56.9971 173.526C62.9231 172.657 67.7007 170.707 71.5489 168.122C76.7887 164.602 80.2758 159.926 82.5954 155.27C84.9141 150.615 86.0711 145.972 86.6493 142.495Z" fill="#EDB72B" stroke="black"/>
<path d="M193.396 66.2017V66.199C193.402 66.199 193.41 66.1988 193.43 66.198C193.446 66.1974 193.473 66.1963 193.502 66.1963L193.396 66.2017ZM193.396 66.2017H193.295H193.396ZM156.57 35.6683C156.598 35.5003 156.625 35.335 156.65 35.1725C156.675 35.335 156.702 35.5003 156.73 35.6683C157.308 39.1445 158.466 43.7883 160.785 48.4426C163.105 53.0988 166.592 57.7747 171.832 61.2945C175.68 63.8792 180.458 65.8298 186.383 66.6988C180.456 67.5677 175.678 69.5184 171.83 72.1036C166.59 75.6233 163.103 80.2992 160.783 84.9555C158.465 89.6098 157.308 94.2536 156.729 97.7298C156.702 97.8973 156.675 98.0622 156.65 98.2243C156.625 98.0622 156.598 97.8973 156.57 97.7298C155.992 94.2536 154.835 89.6098 152.516 84.9555C150.197 80.2992 146.71 75.6233 141.47 72.1036C137.622 69.5186 132.844 67.568 126.918 66.699C132.844 65.8301 137.622 63.8794 141.47 61.2945C146.71 57.7747 150.197 53.0988 152.516 48.4426C154.835 43.7883 155.992 39.1444 156.57 35.6683Z" fill="white" stroke="black"/>
<path d="M203.895 160.298L159.486 121.558" stroke="black"/>
</svg>
