<svg width="308" height="70" viewBox="0 0 308 70" fill="none" xmlns="http://www.w3.org/2000/svg">
<path d="M76.0962 37.207C76.0962 36.9492 76.0962 36.5303 76.0962 35.9502C76.1177 35.3486 76.1284 34.7256 76.1284 34.0811C76.1284 33.415 76.1284 32.792 76.1284 32.2119C76.1499 31.6318 76.1606 31.2236 76.1606 30.9873C76.1821 30.8369 76.2358 30.6113 76.3218 30.3105C76.4077 29.9883 76.5044 29.6768 76.6118 29.376C76.7407 29.0752 76.9019 28.8174 77.0952 28.6025C77.3101 28.3662 77.5679 28.248 77.8687 28.248C78.5776 28.248 79.2437 28.4414 79.8667 28.8281C80.4897 29.2148 81.0913 29.7305 81.6714 30.375C82.2515 30.998 82.7993 31.6963 83.3149 32.4697C83.8521 33.2432 84.3784 34.0166 84.894 34.79C85.4097 35.542 85.9146 36.2617 86.4087 36.9492C86.9028 37.6152 87.397 38.1523 87.8911 38.5605C88.4282 38.3242 88.8472 37.8945 89.1479 37.2715C89.4487 36.627 89.6958 35.8965 89.8892 35.0801C90.0825 34.2422 90.2544 33.3828 90.4048 32.502C90.5767 31.5996 90.8022 30.7725 91.0815 30.0205C91.3608 29.2686 91.7261 28.6562 92.1772 28.1836C92.6499 27.6895 93.2944 27.4424 94.1108 27.4424C95.0776 27.4424 95.9478 27.8184 96.7212 28.5703C97.5161 29.3223 98.2251 30.2783 98.8481 31.4385C99.4712 32.5986 99.9976 33.8877 100.427 35.3057C100.878 36.7236 101.254 38.0879 101.555 39.3984C101.856 40.709 102.082 41.8906 102.232 42.9434C102.382 43.9961 102.458 44.748 102.458 45.1992C102.458 45.3926 102.447 45.6074 102.425 45.8438C102.404 46.0586 102.35 46.2627 102.264 46.4561C102.178 46.6279 102.039 46.7676 101.845 46.875C101.652 46.9609 101.373 46.9502 101.007 46.8428C100.9 46.8213 100.771 46.7676 100.621 46.6816C100.492 46.5742 100.352 46.4453 100.202 46.2949C100.051 46.1445 99.9224 46.0049 99.8149 45.876C99.7075 45.7256 99.6538 45.5967 99.6538 45.4893C99.4604 44.4365 99.2456 43.2656 99.0093 41.9766C98.7729 40.6875 98.4722 39.3877 98.1069 38.0771C97.7632 36.7451 97.3228 35.4561 96.7856 34.21C96.2485 32.9639 95.5825 31.8896 94.7876 30.9873C94.1646 31.3311 93.6704 31.8574 93.3052 32.5664C92.9614 33.2539 92.6714 34.0166 92.4351 34.8545C92.1987 35.6709 91.9839 36.5088 91.7905 37.3682C91.5972 38.2275 91.3394 39.0117 91.0171 39.7207C90.6948 40.4082 90.2866 40.9775 89.7925 41.4287C89.2983 41.8799 88.6323 42.1055 87.7944 42.1055C87.2144 42.1055 86.645 41.9229 86.0864 41.5576C85.5493 41.1709 85.0229 40.6768 84.5073 40.0752C83.9917 39.4521 83.4868 38.7754 82.9927 38.0449C82.52 37.293 82.0474 36.5625 81.5747 35.8535C81.1235 35.123 80.6724 34.4463 80.2212 33.8232C79.7915 33.2002 79.3511 32.7061 78.8999 32.3408C78.728 33.0068 78.5884 33.5977 78.481 34.1133C78.395 34.6074 78.3198 35.0908 78.2554 35.5635C78.2124 36.0361 78.1802 36.5195 78.1587 37.0137C78.1587 37.5078 78.1587 38.0557 78.1587 38.6572C78.1587 39.5596 78.2339 40.4619 78.3843 41.3643C78.5347 42.2451 78.6958 43.126 78.8677 44.0068C79.0396 44.8877 79.2007 45.7793 79.3511 46.6816C79.5229 47.5625 79.6089 48.4541 79.6089 49.3564V49.6143C79.5659 49.6787 79.48 49.7861 79.3511 49.9365C79.2222 50.0654 79.0825 50.2051 78.9321 50.3555C78.8032 50.5059 78.6636 50.6455 78.5132 50.7744C78.3628 50.8818 78.2554 50.957 78.1909 51C78.1694 51.0215 78.1265 51.0322 78.062 51.0322C77.9976 51.0537 77.9331 51.0645 77.8687 51.0645C77.8257 51.0645 77.772 51.0537 77.7075 51.0322C77.6431 51.0107 77.5894 51 77.5464 51C77.396 49.7539 77.2349 48.5723 77.063 47.4551C76.8911 46.3379 76.73 45.2314 76.5796 44.1357C76.4507 43.04 76.3325 41.9336 76.2251 40.8164C76.1392 39.6992 76.0962 38.4961 76.0962 37.207ZM104.391 44.458C104.391 43.126 104.703 41.8906 105.326 40.752C105.949 39.5918 106.765 38.6035 107.775 37.7871C108.806 36.9492 109.956 36.2939 111.223 35.8213C112.512 35.3486 113.812 35.1123 115.123 35.1123C115.853 35.1123 116.498 35.3486 117.056 35.8213C117.636 36.2939 118.12 36.874 118.506 37.5615C118.893 38.2275 119.183 38.9365 119.376 39.6885C119.591 40.4404 119.699 41.0957 119.699 41.6543C119.699 42.8574 119.409 44.0283 118.829 45.167C118.249 46.2842 117.497 47.2832 116.573 48.1641C115.649 49.0234 114.607 49.7217 113.447 50.2588C112.287 50.7959 111.126 51.0645 109.966 51.0645C108.935 51.0645 108.065 50.8926 107.356 50.5488C106.647 50.1836 106.078 49.7109 105.648 49.1309C105.218 48.5293 104.896 47.8311 104.681 47.0361C104.488 46.2197 104.391 45.3604 104.391 44.458ZM107.13 44.7803C107.13 45.3389 107.173 45.833 107.259 46.2627C107.367 46.6709 107.539 47.0254 107.775 47.3262C108.033 47.627 108.366 47.8633 108.774 48.0352C109.182 48.1855 109.687 48.2607 110.289 48.2607C111.083 48.2607 111.878 48.0459 112.673 47.6162C113.468 47.165 114.177 46.6064 114.8 45.9404C115.445 45.2529 115.96 44.501 116.347 43.6846C116.734 42.8682 116.927 42.0732 116.927 41.2998C116.927 40.9561 116.895 40.5801 116.831 40.1719C116.766 39.7637 116.659 39.3877 116.508 39.0439C116.358 38.7002 116.143 38.4102 115.864 38.1738C115.584 37.9375 115.23 37.8193 114.8 37.8193C114.414 37.8193 113.952 37.9482 113.415 38.2061C112.899 38.4639 112.351 38.7969 111.771 39.2051C111.212 39.6133 110.654 40.0752 110.095 40.5908C109.558 41.1064 109.064 41.6221 108.613 42.1377C108.162 42.6533 107.796 43.1475 107.517 43.6201C107.259 44.0928 107.13 44.4795 107.13 44.7803ZM120.956 40.1396C120.956 39.5811 121.095 39.1836 121.375 38.9473C121.654 38.6895 122.105 38.5605 122.728 38.5605H123.05C123.115 38.9043 123.19 39.3018 123.276 39.7529C123.362 40.2041 123.491 40.666 123.663 41.1387C123.834 41.6113 124.039 42.0518 124.275 42.46C124.511 42.8467 124.801 43.1582 125.145 43.3945C125.167 42.6426 125.349 41.9229 125.693 41.2354C126.058 40.5264 126.499 39.9033 127.014 39.3662C127.551 38.8076 128.131 38.3457 128.754 37.9805C129.399 37.5938 130.033 37.3359 130.656 37.207H131.365C132.396 37.207 133.277 37.4434 134.007 37.916C134.738 38.3672 135.339 38.9688 135.812 39.7207C136.306 40.4512 136.682 41.2891 136.94 42.2344C137.198 43.1797 137.391 44.1465 137.52 45.1348C137.67 46.1016 137.756 47.0469 137.778 47.9707C137.821 48.873 137.842 49.6465 137.842 50.291H135.49C135.361 49.002 135.2 47.7666 135.006 46.585C134.942 46.1123 134.856 45.6182 134.749 45.1025C134.641 44.5654 134.523 44.0713 134.394 43.6201C134.265 43.1475 134.125 42.7178 133.975 42.3311C133.825 41.9229 133.653 41.5791 133.459 41.2998C133.374 41.2139 133.255 41.0957 133.105 40.9453C132.976 40.7949 132.836 40.6445 132.686 40.4941C132.536 40.3438 132.396 40.2148 132.267 40.1074C132.138 40 132.063 39.9463 132.042 39.9463C131.397 39.7744 130.838 39.9033 130.366 40.333C129.893 40.7412 129.474 41.2998 129.109 42.0088C128.744 42.7178 128.443 43.5234 128.207 44.4258C127.992 45.3281 127.809 46.1982 127.659 47.0361C127.508 47.8525 127.401 48.5723 127.336 49.1953C127.272 49.7969 127.229 50.1621 127.208 50.291C126.67 50.6777 126.166 50.7959 125.693 50.6455C125.22 50.4736 124.769 50.1299 124.339 49.6143C123.931 49.0986 123.555 48.4541 123.211 47.6807C122.889 46.9072 122.588 46.0908 122.309 45.2314C122.03 44.3506 121.772 43.4697 121.536 42.5889C121.321 41.708 121.127 40.8916 120.956 40.1396ZM154.471 39.9463C154.471 39.2158 154.568 38.4209 154.761 37.5615C154.976 36.7021 155.266 35.8428 155.631 34.9834C155.997 34.1025 156.437 33.2539 156.953 32.4375C157.468 31.5996 158.048 30.8691 158.693 30.2461C159.337 29.6016 160.036 29.0967 160.788 28.7314C161.54 28.3447 162.334 28.1514 163.172 28.1514C163.86 28.1514 164.504 28.248 165.106 28.4414C165.708 28.6133 166.223 28.8818 166.653 29.2471C167.083 29.6123 167.416 30.0742 167.652 30.6328C167.91 31.1699 168.039 31.8145 168.039 32.5664C167.566 32.5664 167.179 32.4482 166.878 32.2119C166.599 31.9541 166.331 31.6748 166.073 31.374C165.836 31.0732 165.568 30.8047 165.267 30.5684C164.988 30.332 164.623 30.2139 164.171 30.2139C163.505 30.2139 162.861 30.3857 162.238 30.7295C161.636 31.0732 161.067 31.5352 160.53 32.1152C160.014 32.6953 159.552 33.3506 159.144 34.0811C158.757 34.8115 158.414 35.5527 158.113 36.3047C157.833 37.0352 157.608 37.7549 157.436 38.4639C157.286 39.1729 157.21 39.7852 157.21 40.3008C157.21 41.418 157.372 42.4707 157.694 43.459C158.038 44.4258 158.521 45.2744 159.144 46.0049C159.767 46.7139 160.541 47.2725 161.464 47.6807C162.388 48.0889 163.441 48.293 164.623 48.293C165.375 48.293 166.083 48.1855 166.75 47.9707C167.437 47.7344 168.092 47.4873 168.715 47.2295C169.36 46.9502 169.994 46.6924 170.617 46.4561C171.24 46.2197 171.863 46.1016 172.486 46.1016C172.572 46.1016 172.69 46.1123 172.84 46.1338C173.012 46.1338 173.163 46.1553 173.292 46.1982C173.442 46.2412 173.571 46.3164 173.678 46.4238C173.786 46.5098 173.839 46.6494 173.839 46.8428C173.839 47.6162 173.539 48.2715 172.937 48.8086C172.357 49.3457 171.659 49.7861 170.842 50.1299C170.026 50.4521 169.177 50.6885 168.296 50.8389C167.416 50.9893 166.696 51.0645 166.137 51.0645C164.504 51.0645 162.979 50.8066 161.561 50.291C160.143 49.7539 158.908 49.002 157.855 48.0352C156.802 47.0684 155.975 45.9082 155.374 44.5547C154.772 43.1797 154.471 41.6436 154.471 39.9463ZM174.548 27.7002C175.494 27.7002 176.278 27.9795 176.901 28.5381C177.524 29.0967 178.05 29.8271 178.48 30.7295C178.91 31.6104 179.264 32.6309 179.543 33.791C179.823 34.9297 180.091 36.1113 180.349 37.3359C180.607 38.5391 180.865 39.7207 181.123 40.8809C181.402 42.0195 181.746 43.04 182.154 43.9424C182.583 44.8447 183.088 45.5752 183.668 46.1338C184.27 46.6709 185.033 46.9395 185.957 46.9395C186 46.9395 186.053 46.9287 186.118 46.9072C186.161 46.8857 186.214 46.8643 186.279 46.8428C186.365 46.8213 186.494 46.7246 186.666 46.5527C186.837 46.3594 186.945 46.2305 186.988 46.166C187.031 46.0586 187.117 45.7041 187.246 45.1025C187.375 44.501 187.546 43.7383 187.761 42.8145C187.998 41.8906 188.255 40.8486 188.535 39.6885C188.814 38.5283 189.104 37.3574 189.405 36.1758C189.727 34.9727 190.049 33.8125 190.372 32.6953C190.694 31.5566 191.005 30.5469 191.306 29.666C191.607 28.7852 191.886 28.0869 192.144 27.5713C192.423 27.0342 192.66 26.7656 192.853 26.7656C193.111 26.7656 193.315 26.8193 193.465 26.9268C193.616 27.0342 193.723 27.1738 193.788 27.3457C193.852 27.5176 193.895 27.7109 193.917 27.9258C193.938 28.1191 193.949 28.3125 193.949 28.5059C193.949 28.8281 193.884 29.3975 193.755 30.2139C193.648 31.0303 193.487 31.9971 193.272 33.1143C193.079 34.21 192.832 35.4131 192.531 36.7236C192.251 38.0342 191.94 39.3662 191.596 40.7197C191.252 42.0518 190.876 43.3408 190.468 44.5869C190.06 45.8115 189.641 46.9072 189.211 47.874C188.803 48.8193 188.374 49.582 187.922 50.1621C187.493 50.7207 187.063 51 186.633 51C186.053 51 185.495 50.8389 184.958 50.5166C184.42 50.1943 183.916 49.7754 183.443 49.2598C182.97 48.7441 182.519 48.1641 182.089 47.5195C181.681 46.8535 181.305 46.1875 180.961 45.5215C180.639 44.8555 180.338 44.2217 180.059 43.6201C179.78 43.0186 179.554 42.4922 179.382 42.041C179.146 41.4609 178.856 40.7627 178.512 39.9463C178.19 39.1084 177.846 38.2383 177.481 37.3359C177.137 36.4336 176.783 35.5312 176.417 34.6289C176.074 33.7051 175.762 32.8887 175.483 32.1797C175.204 31.4492 174.978 30.8477 174.806 30.375C174.634 29.9023 174.548 29.6445 174.548 29.6016V27.7002ZM212.125 38.915C212.125 38.7861 212.125 38.582 212.125 38.3027C212.146 38.002 212.157 37.6904 212.157 37.3682C212.178 37.0459 212.189 36.7344 212.189 36.4336C212.21 36.1328 212.221 35.918 212.221 35.7891C212.458 35.4453 212.758 35.166 213.124 34.9512C213.51 34.7363 213.897 34.5645 214.284 34.4355C214.348 35.5957 214.531 36.8311 214.832 38.1416C215.132 39.4521 215.455 40.7734 215.798 42.1055C216.142 43.416 216.443 44.7158 216.701 46.0049C216.98 47.2939 217.12 48.4971 217.12 49.6143C217.12 50.5811 216.625 51.0645 215.637 51.0645C215.036 51.0645 214.531 50.8174 214.123 50.3232C213.714 49.8291 213.381 49.2061 213.124 48.4541C212.887 47.6807 212.694 46.832 212.543 45.9082C212.393 44.9629 212.286 44.0391 212.221 43.1367C212.178 42.2344 212.146 41.4072 212.125 40.6553C212.125 39.9033 212.125 39.3232 212.125 38.915ZM212.576 26.8301C212.984 27.002 213.328 27.2812 213.607 27.668C213.886 28.0547 214.004 28.4092 213.961 28.7314C213.94 29.0322 213.704 29.2471 213.252 29.376C212.801 29.4834 212.049 29.3545 210.997 28.9893C210.997 28.4092 211.104 27.9043 211.319 27.4746C211.555 27.0449 211.974 26.8301 212.576 26.8301ZM217.732 41.2998C217.732 40.3975 217.925 39.4521 218.312 38.4639C218.72 37.4756 219.257 36.584 219.923 35.7891C220.589 34.9727 221.352 34.2959 222.211 33.7588C223.092 33.2217 224.016 32.9531 224.983 32.9531C225.477 32.9531 225.971 33.0391 226.465 33.2109C226.959 33.3828 227.4 33.6299 227.787 33.9521C228.195 34.2744 228.517 34.6611 228.753 35.1123C229.011 35.5635 229.14 36.0684 229.14 36.627C228.753 36.627 228.399 36.584 228.077 36.498C227.776 36.4121 227.475 36.3154 227.174 36.208C226.874 36.0791 226.573 35.9717 226.272 35.8857C225.993 35.7998 225.681 35.7568 225.337 35.7568C224.457 35.7568 223.737 35.9824 223.178 36.4336C222.641 36.8633 222.211 37.4111 221.889 38.0771C221.567 38.7432 221.341 39.4629 221.212 40.2363C221.105 40.9883 221.051 41.6973 221.051 42.3633C221.051 42.4707 221.051 42.6748 221.051 42.9756C221.073 43.2764 221.083 43.5986 221.083 43.9424C221.105 44.2646 221.116 44.5762 221.116 44.877C221.137 45.1777 221.159 45.3818 221.18 45.4893C221.417 46.0049 221.642 46.4023 221.857 46.6816C222.093 46.9609 222.34 47.1758 222.598 47.3262C222.856 47.4551 223.135 47.541 223.436 47.584C223.737 47.6055 224.091 47.6162 224.5 47.6162C225.058 47.6162 225.542 47.5303 225.95 47.3584C226.379 47.1865 226.777 46.9824 227.142 46.7461C227.507 46.5098 227.851 46.252 228.173 45.9727C228.496 45.6719 228.829 45.4033 229.172 45.167C229.538 44.9092 229.924 44.7051 230.333 44.5547C230.762 44.3828 231.246 44.2969 231.783 44.2969C231.783 45.3496 231.589 46.2842 231.203 47.1006C230.837 47.917 230.311 48.6152 229.624 49.1953C228.958 49.7754 228.163 50.2266 227.239 50.5488C226.336 50.8496 225.348 51 224.274 51C223.264 51 222.351 50.6562 221.535 49.9688C220.74 49.2812 220.052 48.4434 219.472 47.4551C218.914 46.4453 218.484 45.3818 218.183 44.2646C217.882 43.1475 217.732 42.1592 217.732 41.2998ZM234.941 38.915C234.941 38.7861 234.941 38.582 234.941 38.3027C234.962 38.002 234.973 37.6904 234.973 37.3682C234.995 37.0459 235.005 36.7344 235.005 36.4336C235.027 36.1328 235.038 35.918 235.038 35.7891C235.274 35.4453 235.575 35.166 235.94 34.9512C236.327 34.7363 236.713 34.5645 237.1 34.4355C237.165 35.5957 237.347 36.8311 237.648 38.1416C237.949 39.4521 238.271 40.7734 238.615 42.1055C238.958 43.416 239.259 44.7158 239.517 46.0049C239.796 47.2939 239.936 48.4971 239.936 49.6143C239.936 50.5811 239.442 51.0645 238.454 51.0645C237.852 51.0645 237.347 50.8174 236.939 50.3232C236.531 49.8291 236.198 49.2061 235.94 48.4541C235.704 47.6807 235.51 46.832 235.36 45.9082C235.209 44.9629 235.102 44.0391 235.038 43.1367C234.995 42.2344 234.962 41.4072 234.941 40.6553C234.941 39.9033 234.941 39.3232 234.941 38.915ZM235.392 26.8301C235.8 27.002 236.144 27.2812 236.423 27.668C236.703 28.0547 236.821 28.4092 236.778 28.7314C236.756 29.0322 236.52 29.2471 236.069 29.376C235.618 29.4834 234.866 29.3545 233.813 28.9893C233.813 28.4092 233.92 27.9043 234.135 27.4746C234.372 27.0449 234.791 26.8301 235.392 26.8301Z" fill="#1E1E1F"/>
<path d="M145.243 13.9477C111.589 12.6021 78.0429 11.9998 44.3448 13.3681C39.1085 13.5807 24.0136 13.1427 19.5676 16.8461C10.4382 24.4506 -1.81774 33.0065 3.14179 40.5208C5.5154 44.117 30.3447 51.9093 36.4299 53.3237C62.1479 59.3014 91.2411 61.0385 118.332 63.2609C149.918 65.8521 181.326 66.8269 213.174 67.1944C240.276 67.507 271.836 69.8303 298.311 64.9585C311.207 62.5855 305.461 53.0111 300.238 48.0653C292.2 40.4534 280.457 35.3437 267.753 30.7581C246.319 23.0215 223.534 15.8407 200.785 9.55882C178.519 3.41025 154.376 2.2379 130.17 2.06454C114.976 1.95572 101.222 1.7996 87.0167 5.00429" stroke="black" stroke-width="3" stroke-linecap="round"/>
</svg>
