<svg width="1572" height="1065" viewBox="0 0 1572 1065" fill="none" xmlns="http://www.w3.org/2000/svg">
<path d="M1160.65 975.545L829.058 962.847C795.957 961.609 769.83 935.037 769.83 902.643V208.872C769.767 174.621 798.874 147.306 833.878 148.668L1165.47 161.304C1198.57 162.543 1224.69 189.114 1224.69 221.508V915.403C1224.69 949.592 1195.65 976.907 1160.65 975.545Z" fill="#A6ADB6"/>
<path d="M1123.19 1008.94L798.078 996.166C765.624 994.919 740.008 968.177 740.008 935.575V237.347C739.946 202.875 768.484 175.384 802.804 176.756L1127.91 189.472C1160.37 190.719 1185.98 217.461 1185.98 250.063V948.416C1185.98 982.826 1157.51 1010.32 1123.19 1008.94Z" fill="#D3DBE7"/>
<path d="M1185.97 862.405L739.945 845.797V258.676L1185.97 275.284V862.405Z" fill="white"/>
<path d="M899.626 176.706C947.365 176.706 986.065 138.006 986.065 90.2675C986.065 42.5286 947.365 3.82861 899.626 3.82861C851.887 3.82861 813.188 42.5286 813.188 90.2675C813.188 138.006 851.887 176.706 899.626 176.706Z" fill="white" stroke="black" stroke-width="6.99" stroke-miterlimit="10" stroke-linecap="round" stroke-linejoin="round"/>
<path d="M920.516 174.145C874.17 185.716 827.26 157.508 815.689 111.161C804.118 64.8142 832.326 17.9045 878.673 6.3335L920.516 174.145Z" fill="black"/>
<path d="M1020.96 179.272C1068.7 179.272 1107.4 140.572 1107.4 92.8329C1107.4 45.094 1068.7 6.39404 1020.96 6.39404C973.225 6.39404 934.525 45.094 934.525 92.8329C934.525 140.572 973.225 179.272 1020.96 179.272Z" fill="white" stroke="black" stroke-width="6.99" stroke-miterlimit="10" stroke-linecap="round" stroke-linejoin="round"/>
<path d="M1041.92 176.771C995.572 188.342 948.662 160.134 937.091 113.787C925.52 67.4402 953.729 20.5305 1000.08 8.95947L1041.92 176.771Z" fill="black"/>
<path d="M1125.48 1008.94L798.426 996.123C765.777 994.872 740.008 968.039 740.008 935.328V234.685C740.008 200.16 768.717 172.577 803.242 173.89L1130.3 186.712C1162.95 187.963 1188.71 214.795 1188.71 247.507V948.15C1188.65 982.675 1159.94 1010.32 1125.48 1008.94Z" stroke="black" stroke-width="6.99" stroke-miterlimit="10" stroke-linecap="round" stroke-linejoin="round"/>
<path d="M1077.95 157.318L1166.07 161.008C1198.72 162.259 1224.49 188.716 1224.49 220.865V915.315C1224.49 920.319 1224.06 925.198 1222.74 929.764C1217.24 948.527 1168.26 993.561 1168.26 993.561" stroke="black" stroke-width="6.99" stroke-miterlimit="10" stroke-linecap="round" stroke-linejoin="round"/>
<path d="M769.844 182.272L795.988 163.633C811.875 152.75 822.508 147.746 838.957 148.372" stroke="black" stroke-width="6.99" stroke-miterlimit="10" stroke-linecap="round" stroke-linejoin="round"/>
<path d="M1137.8 1009.01C1149.81 1002.69 1167.76 996.19 1179.59 981.741C1184.65 975.549 1201.73 962.54 1208.86 951.407C1213.42 944.339 1223.87 925.763 1224.49 915.317C1224.68 912.128 1222.68 906.373 1222.68 897.867C1222.68 881.042 1222.93 876.289 1225.24 876.289C1420.01 876.289 1571.12 921.76 1571.12 970.296C1571.12 1022.58 1396.06 1064.93 1180.02 1064.93C963.989 1064.93 803.745 1013.39 767.844 988.622L812.564 996.69L857.785 998.441L907.76 1000.38C907.76 1000.38 953.856 1002.82 987.631 1003.51C1032.85 1004.45 1058.68 1006.26 1058.68 1006.26L1137.8 1009.01Z" fill="black"/>
<path d="M1188.65 896.176C1188.65 930.702 1159.94 958.284 1125.42 956.971L798.363 944.149C765.714 942.898 739.945 916.066 739.945 883.354" stroke="black" stroke-width="6.99" stroke-miterlimit="10" stroke-linecap="round" stroke-linejoin="round"/>
<path d="M1188.65 862.405L739.945 845.705" stroke="black" stroke-width="6.99" stroke-miterlimit="10" stroke-linecap="round" stroke-linejoin="round"/>
<path d="M1188.65 272.027L739.945 255.327" stroke="black" stroke-width="6.99" stroke-miterlimit="10" stroke-linecap="round" stroke-linejoin="round"/>
<path d="M1000.64 216.426L886.43 212.173" stroke="black" stroke-width="6.99" stroke-miterlimit="10" stroke-linecap="round" stroke-linejoin="round"/>
<path d="M949.103 385.421V457.287" stroke="black" stroke-width="6.99" stroke-miterlimit="10" stroke-linecap="round" stroke-linejoin="round"/>
<path d="M949.103 538.849V610.714" stroke="black" stroke-width="6.99" stroke-miterlimit="10" stroke-linecap="round" stroke-linejoin="round"/>
<path d="M1061 498.005H989.135" stroke="black" stroke-width="6.99" stroke-miterlimit="10" stroke-linecap="round" stroke-linejoin="round"/>
<path d="M94.7852 990.68C94.7852 990.68 110.734 790.532 275.231 786.279C454.051 781.65 478.068 1001.88 478.068 1001.88C478.068 1001.88 478.444 710.41 647.881 731.989C701.671 741.183 681.406 810.922 656.137 800.664C624.989 788.03 584.522 602.393 759.526 521.833C794.927 505.571 833.769 498.066 872.735 498.066H908.261" stroke="black" stroke-width="6.99" stroke-miterlimit="10" stroke-linecap="round" stroke-linejoin="round"/>
<path d="M1028.04 578.124L977.188 527.274" stroke="black" stroke-width="6.99" stroke-miterlimit="10" stroke-linecap="round" stroke-linejoin="round"/>
<path d="M919.269 470.108L868.419 419.32" stroke="black" stroke-width="6.99" stroke-miterlimit="10" stroke-linecap="round" stroke-linejoin="round"/>
<path d="M868.419 576.688L919.269 525.9" stroke="black" stroke-width="6.99" stroke-miterlimit="10" stroke-linecap="round" stroke-linejoin="round"/>
<path d="M977.688 466.671L1028.54 415.821" stroke="black" stroke-width="6.99" stroke-miterlimit="10" stroke-linecap="round" stroke-linejoin="round"/>
<path d="M964.803 909.935C970.083 895.462 964.42 880.102 952.154 875.627C939.887 871.152 925.664 879.257 920.384 893.73C915.104 908.203 920.768 923.563 933.034 928.037C945.3 932.512 959.524 924.407 964.803 909.935Z" stroke="black" stroke-width="6.99" stroke-miterlimit="10"/>
<path d="M1338.24 554.33C1345.04 554.638 1350.8 549.378 1351.11 542.58C1351.41 535.782 1346.15 530.02 1339.36 529.712C1332.56 529.403 1326.8 534.664 1326.49 541.462C1326.18 548.26 1331.44 554.021 1338.24 554.33Z" fill="black"/>
<path d="M1395.53 577.78C1396.58 572.568 1397.13 567.272 1397.19 561.89C1397.41 544.682 1392.44 527.238 1381.86 512.044C1371.1 496.592 1356.13 485.769 1339.61 480.073C1334.55 478.341 1329.35 477.04 1324.06 476.299" stroke="black" stroke-width="6.99" stroke-miterlimit="10"/>
<path d="M1441.94 587.087C1444.12 577.545 1445.26 567.704 1445.27 557.874C1445.23 532.39 1437.76 506.631 1422.07 484.13C1406.25 461.436 1384.51 445.359 1360.36 436.562C1351.31 433.271 1341.9 430.965 1332.37 429.719" stroke="black" stroke-width="6.99" stroke-miterlimit="10"/>
<path d="M1495.55 597.596C1498.66 582.961 1499.97 567.994 1499.46 553.006C1498.34 518.394 1487.51 483.78 1466.29 453.265C1444.78 422.423 1415.61 400.062 1383.15 387.067C1383.02 386.999 1382.96 386.996 1382.84 386.928C1369.37 381.558 1355.33 377.79 1341.09 375.704" stroke="black" stroke-width="6.99" stroke-miterlimit="10"/>
<path d="M1348.86 325.846C1368.17 328.037 1387.12 332.717 1405.34 339.679C1446.5 355.511 1483.55 383.426 1510.71 422.413C1537.57 461.011 1550.91 505.006 1551.68 548.743C1552.03 568.607 1549.82 588.417 1545.06 607.673" stroke="black" stroke-width="6.99" stroke-miterlimit="10"/>
<path d="M38.3672 821.37L69.7654 936.892" stroke="black" stroke-width="6.99" stroke-miterlimit="10" stroke-linecap="round" stroke-linejoin="round"/>
<path d="M4.27734 928.89L54.0641 975.237" stroke="black" stroke-width="6.99" stroke-miterlimit="10" stroke-linecap="round" stroke-linejoin="round"/>
<path d="M857.283 660.881L856.971 681.584L870.23 681.897" stroke="black" stroke-width="5" stroke-miterlimit="10" stroke-linecap="round" stroke-linejoin="round"/>
<path d="M895.06 672.014C894.935 677.956 890.619 682.647 885.365 682.522C880.174 682.397 876.046 677.581 876.171 671.701C876.296 665.885 880.549 661.194 885.74 661.194C890.932 661.256 895.122 666.072 895.06 672.014Z" stroke="black" stroke-width="5" stroke-miterlimit="10" stroke-linecap="round" stroke-linejoin="round"/>
<path d="M923.209 683.396L913.076 661.505L906.509 674.452L902.256 682.896" stroke="black" stroke-width="5" stroke-miterlimit="10" stroke-linecap="round" stroke-linejoin="round"/>
<path d="M918.517 674.514L906.821 674.326" stroke="black" stroke-width="5" stroke-miterlimit="10" stroke-linecap="round" stroke-linejoin="round"/>
<path d="M932.277 683.397C933.152 683.584 934.028 683.647 934.966 683.647C942.597 683.834 948.851 679.018 948.976 672.951C949.101 666.884 942.972 661.818 935.341 661.756C934.341 661.756 933.34 661.818 932.402 662.006L932.026 683.397H932.277Z" stroke="black" stroke-width="5" stroke-miterlimit="10" stroke-linecap="round" stroke-linejoin="round"/>
<path d="M960.67 667.326L960.357 684.651" stroke="black" stroke-width="5" stroke-miterlimit="10" stroke-linecap="round" stroke-linejoin="round"/>
<path d="M960.794 657.003V660.318" stroke="black" stroke-width="5" stroke-miterlimit="10" stroke-linecap="round" stroke-linejoin="round"/>
<path d="M973.558 684.588L973.995 662.134L993.885 685.026L994.26 662.384" stroke="black" stroke-width="5" stroke-miterlimit="10" stroke-linecap="round" stroke-linejoin="round"/>
<path d="M1018.47 662.635C1011.96 662.572 1006.58 667.701 1006.52 674.143C1006.46 680.586 1011.59 685.902 1018.09 686.09C1024.66 686.277 1030.1 681.086 1030.23 674.581L1018.28 674.394" stroke="black" stroke-width="5" stroke-miterlimit="10" stroke-linecap="round" stroke-linejoin="round"/>
<path d="M1065.37 685.902C1065.37 687.403 1066.75 688.717 1068.44 688.717C1070.19 688.78 1071.57 687.529 1071.63 686.027C1071.63 684.526 1070.25 683.213 1068.56 683.213C1066.81 683.213 1065.44 684.401 1065.37 685.902Z" fill="black"/>
<path d="M1052.68 685.649C1052.68 687.15 1053.99 688.401 1055.68 688.463C1057.37 688.526 1058.81 687.337 1058.81 685.774C1058.81 684.273 1057.49 683.022 1055.74 682.959C1054.05 682.896 1052.68 684.085 1052.68 685.649Z" fill="black"/>
<path d="M1040.1 685.335C1040.1 686.837 1041.42 688.087 1043.11 688.15C1044.8 688.212 1046.17 687.024 1046.17 685.523C1046.17 684.022 1044.86 682.771 1043.17 682.708C1041.48 682.646 1040.1 683.834 1040.1 685.335Z" fill="black"/>
</svg>
