<svg width="241" height="241" viewBox="0 0 241 241" fill="none" xmlns="http://www.w3.org/2000/svg">
<path d="M78.176 109.189L81.9064 119.27L81.9861 119.486L82.2018 119.565L92.2828 123.296L82.2018 127.026L81.9861 127.106L81.9064 127.321L78.176 137.402L74.4457 127.321L74.3659 127.106L74.1503 127.026L64.0692 123.296L74.1503 119.565L74.3659 119.486L74.4457 119.27L78.176 109.189Z" fill="#8E3AE2" stroke="black"/>
<path d="M113.894 88.8072C94.254 68.2221 65.5728 71.6229 53.46 80.9141L63.0229 90.1955C70.4731 84.2202 89.9763 77.9749 110.894 98.2763C129.382 116.22 152.514 108.545 160.564 100.676L152.276 92.6318C152.276 92.6318 133.533 109.392 113.894 88.8072Z" fill="white" stroke="black"/>
<path d="M111.512 97.6383C91.8727 77.0532 63.1914 80.454 51.0786 89.7451L60.6416 99.0266C68.0918 93.0512 87.5949 86.8059 108.512 107.107C127.001 125.052 150.133 117.376 158.183 109.507L149.895 101.463C149.895 101.463 131.152 118.223 111.512 97.6383Z" fill="black" stroke="black"/>
<line x1="177.389" y1="78.4297" x2="177.389" y2="155.723" stroke="black"/>
<line x1="103.108" y1="100.641" x2="103.108" y2="170.827" stroke="black"/>
<circle cx="157.691" cy="153.946" r="21.7109" fill="#2BEDE1" stroke="black"/>
<circle cx="82.1737" cy="169.05" r="21.7109" fill="#F8CEEE" stroke="black"/>
<circle cx="150.584" cy="148.616" r="6.60747" fill="white" stroke="black"/>
<path d="M103.108 108.792V71.9131L177.625 42.7366V79.6157L103.108 108.792Z" fill="#EDB72B" stroke="black"/>
</svg>
