<svg width="400" height="400" viewBox="0 0 400 400" fill="none" xmlns="http://www.w3.org/2000/svg">
<path d="M176.436 289.562C174.517 261.528 173.091 171.081 173.091 154.696C173.091 130.416 184.914 105.651 191.032 87.3973C194.099 78.2557 198.124 68.3705 200.004 59.0169C200.273 57.6928 226.572 134.681 226.572 140.602C226.572 167.787 235.102 294.945 230.998 299.025C224.25 305.736 190.966 303.904 181.246 305.511" stroke="black" stroke-width="7" stroke-linecap="round" stroke-linejoin="round"/>
<path d="M170.776 282.365C154.689 298.232 147.452 317.539 143 337.917" stroke="black" stroke-width="7" stroke-linecap="round" stroke-linejoin="round"/>
<path d="M240.216 285.837C255.607 298.698 257.576 322.442 257.576 341.389" stroke="black" stroke-width="7" stroke-linecap="round" stroke-linejoin="round"/>
<path d="M210.125 142.252C198.706 140.679 180.729 139.83 173.091 146.957" stroke="black" stroke-width="7" stroke-linecap="round" stroke-linejoin="round"/>
<path d="M207.811 178.566C197.092 177.531 185.956 174.913 175.405 178.566" stroke="black" stroke-width="7" stroke-linecap="round" stroke-linejoin="round"/>
<path d="M203.465 283.522C202.784 301.82 201.739 319.406 201.739 337.917" stroke="black" stroke-width="7" stroke-linecap="round" stroke-linejoin="round"/>
</svg>
