<svg width="241" height="241" viewBox="0 0 241 241" fill="none" xmlns="http://www.w3.org/2000/svg">
<path d="M187.735 117.625C187.735 132.593 179.486 150.607 166.085 164.891C152.691 179.168 134.219 189.646 113.854 189.646C93.4882 189.646 75.0165 179.168 61.6222 164.891C48.2211 150.607 39.9717 132.593 39.9717 117.625C39.9717 110.158 42.0236 104.17 45.7133 99.3731C49.408 94.57 54.7712 90.9284 61.4462 88.2093C74.8109 82.7652 93.3229 81.0625 113.854 81.0625C134.384 81.0625 152.896 82.7652 166.261 88.2093C172.936 90.9284 178.299 94.57 181.994 99.3731C185.683 104.17 187.735 110.158 187.735 117.625Z" fill="#2BEDE1" stroke="black"/>
<path d="M187.736 113.41C187.736 123.711 179.622 133.164 166.221 140.07C152.844 146.964 134.331 151.242 113.854 151.242C93.3765 151.242 74.8628 146.964 61.4867 140.07C48.0848 133.164 39.9717 123.711 39.9717 113.41C39.9717 103.108 48.0848 93.6556 61.4867 86.7489C74.8628 79.8556 93.3765 75.5771 113.854 75.5771C134.331 75.5771 152.844 79.8556 166.221 86.7489C179.622 93.6556 187.736 103.108 187.736 113.41Z" fill="#F8CEEE" stroke="black"/>
<path d="M174.058 120.458C174.058 128.813 167.475 136.503 156.549 142.134C145.648 147.752 130.553 151.241 113.853 151.241C97.1531 151.241 82.0588 147.752 71.1579 142.134C60.2311 136.503 53.6489 128.813 53.6489 120.458C53.6489 112.102 60.2311 104.412 71.1579 98.7811C82.0588 93.1633 97.1531 89.6738 113.853 89.6738C130.553 89.6738 145.648 93.1633 156.549 98.7811C167.475 104.412 174.058 112.102 174.058 120.458Z" fill="#EDB72B" stroke="black"/>
<path d="M167.962 85.1323C145.095 77.8857 125.276 92.0358 120.093 103.817L130.927 106.798C134.009 99.3584 145.89 86.8297 169.587 93.3482C190.532 99.1098 204.515 84.0516 207.272 74.9693L197.883 72.3865C197.883 72.3865 190.83 92.3788 167.962 85.1323Z" fill="#2BEDE1" stroke="black"/>
<path d="M169.785 92.6264C146.918 85.3799 127.099 99.53 121.916 111.312L132.749 114.292C135.831 106.853 147.713 94.3238 171.41 100.842C192.355 106.604 206.338 91.5457 209.095 82.4634L199.706 79.8807C199.706 79.8807 192.653 99.873 169.785 92.6264Z" fill="black" stroke="black"/>
<path d="M60.2031 88.784C54.0887 111.98 69.1953 131.08 81.2173 135.678L83.6616 124.711C76.0801 121.998 62.9827 110.746 68.3292 86.7578C73.0549 65.5548 57.3279 52.3285 48.1211 50.0207L46.0027 59.5255C46.0027 59.5255 66.3174 65.5881 60.2031 88.784Z" fill="#2BEDE1" stroke="black"/>
<path d="M112.07 137.785H112.067C112.331 128.65 119.819 121.327 129.017 121.327C138.215 121.327 145.703 128.65 145.967 137.785H145.964H145.951H145.938H145.925H145.911H145.897H145.884H145.87H145.855H145.841H145.827H145.812H145.797H145.782H145.767H145.752H145.737H145.721H145.705H145.689H145.673H145.657H145.641H145.624H145.608H145.591H145.574H145.557H145.54H145.522H145.505H145.487H145.469H145.451H145.433H145.415H145.397H145.378H145.359H145.34H145.321H145.302H145.283H145.263H145.244H145.224H145.204H145.184H145.164H145.144H145.123H145.102H145.082H145.061H145.04H145.018H144.997H144.976H144.954H144.932H144.91H144.888H144.866H144.844H144.821H144.799H144.776H144.753H144.73H144.707H144.683H144.66H144.636H144.612H144.589H144.564H144.54H144.516H144.492H144.467H144.442H144.417H144.392H144.367H144.342H144.317H144.291H144.265H144.24H144.214H144.188H144.161H144.135H144.109H144.082H144.055H144.028H144.001H143.974H143.947H143.92H143.892H143.864H143.837H143.809H143.781H143.752H143.724H143.696H143.667H143.638H143.609H143.581H143.551H143.522H143.493H143.463H143.434H143.404H143.374H143.344H143.314H143.284H143.254H143.223H143.192H143.162H143.131H143.1H143.069H143.037H143.006H142.975H142.943H142.911H142.879H142.848H142.815H142.783H142.751H142.718H142.686H142.653H142.62H142.587H142.554H142.521H142.488H142.454H142.421H142.387H142.354H142.32H142.286H142.252H142.217H142.183H142.148H142.114H142.079H142.044H142.009H141.974H141.939H141.904H141.869H141.833H141.797H141.762H141.726H141.69H141.654H141.618H141.581H141.545H141.508H141.472H141.435H141.398H141.361H141.324H141.287H141.25H141.212H141.175H141.137H141.099H141.061H141.024H140.985H140.947H140.909H140.871H140.832H140.794H140.755H140.716H140.677H140.638H140.599H140.56H140.52H140.481H140.441H140.402H140.362H140.322H140.282H140.242H140.202H140.162H140.121H140.081H140.04H140H139.959H139.918H139.877H139.836H139.795H139.754H139.712H139.671H139.629H139.588H139.546H139.504H139.462H139.42H139.378H139.335H139.293H139.251H139.208H139.166H139.123H139.08H139.037H138.994H138.951H138.908H138.864H138.821H138.778H138.734H138.69H138.646H138.603H138.559H138.515H138.471H138.426H138.382H138.338H138.293H138.248H138.204H138.159H138.114H138.069H138.024H137.979H137.934H137.889H137.843H137.798H137.752H137.706H137.661H137.615H137.569H137.523H137.477H137.431H137.384H137.338H137.292H137.245H137.199H137.152H137.105H137.058H137.011H136.964H136.917H136.87H136.823H136.776H136.728H136.681H136.633H136.585H136.538H136.49H136.442H136.394H136.346H136.298H136.25H136.201H136.153H136.104H136.056H136.007H135.959H135.91H135.861H135.812H135.763H135.714H135.665H135.616H135.566H135.517H135.468H135.418H135.369H135.319H135.269H135.219H135.169H135.119H135.069H135.019H134.969H134.919H134.869H134.818H134.768H134.717H134.667H134.616H134.565H134.514H134.464H134.413H134.362H134.311H134.259H134.208H134.157H134.106H134.054H134.003H133.951H133.9H133.848H133.796H133.744H133.692H133.64H133.588H133.536H133.484H133.432H133.38H133.327H133.275H133.223H133.17H133.118H133.065H133.012H132.959H132.907H132.854H132.801H132.748H132.695H132.642H132.588H132.535H132.482H132.429H132.375H132.322H132.268H132.215H132.161H132.107H132.053H132H131.946H131.892H131.838H131.784H131.73H131.676H131.621H131.567H131.513H131.458H131.404H131.349H131.295H131.24H131.186H131.131H131.076H131.022H130.967H130.912H130.857H130.802H130.747H130.692H130.637H130.581H130.526H130.471H130.416H130.36H130.305H130.249H130.194H130.138H130.082H130.027H129.971H129.915H129.859H129.804H129.748H129.692H129.636H129.58H129.524H129.468H129.411H129.355H129.299H129.243H129.186H129.13H129.073H129.017H128.96H128.904H128.848H128.791H128.735H128.679H128.623H128.566H128.51H128.454H128.398H128.342H128.286H128.23H128.174H128.119H128.063H128.007H127.951H127.896H127.84H127.785H127.729H127.674H127.618H127.563H127.508H127.452H127.397H127.342H127.287H127.232H127.177H127.122H127.067H127.012H126.958H126.903H126.848H126.794H126.739H126.684H126.63H126.576H126.521H126.467H126.413H126.358H126.304H126.25H126.196H126.142H126.088H126.034H125.98H125.927H125.873H125.819H125.766H125.712H125.659H125.605H125.552H125.499H125.445H125.392H125.339H125.286H125.233H125.18H125.127H125.074H125.022H124.969H124.916H124.864H124.811H124.759H124.706H124.654H124.602H124.55H124.497H124.445H124.393H124.341H124.29H124.238H124.186H124.134H124.083H124.031H123.98H123.928H123.877H123.826H123.774H123.723H123.672H123.621H123.57H123.519H123.469H123.418H123.367H123.317H123.266H123.216H123.165H123.115H123.065H123.015H122.964H122.914H122.864H122.815H122.765H122.715H122.665H122.616H122.566H122.517H122.467H122.418H122.369H122.32H122.271H122.222H122.173H122.124H122.075H122.027H121.978H121.929H121.881H121.833H121.784H121.736H121.688H121.64H121.592H121.544H121.496H121.448H121.401H121.353H121.306H121.258H121.211H121.164H121.117H121.069H121.022H120.976H120.929H120.882H120.835H120.789H120.742H120.696H120.649H120.603H120.557H120.511H120.465H120.419H120.373H120.327H120.282H120.236H120.191H120.145H120.1H120.055H120.01H119.965H119.92H119.875H119.83H119.785H119.741H119.696H119.652H119.608H119.563H119.519H119.475H119.431H119.387H119.344H119.3H119.256H119.213H119.169H119.126H119.083H119.04H118.997H118.954H118.911H118.868H118.826H118.783H118.741H118.698H118.656H118.614H118.572H118.53H118.488H118.446H118.405H118.363H118.322H118.28H118.239H118.198H118.157H118.116H118.075H118.034H117.993H117.953H117.912H117.872H117.832H117.792H117.752H117.712H117.672H117.632H117.592H117.553H117.513H117.474H117.435H117.396H117.357H117.318H117.279H117.24H117.202H117.163H117.125H117.087H117.048H117.01H116.972H116.935H116.897H116.859H116.822H116.784H116.747H116.71H116.673H116.636H116.599H116.562H116.526H116.489H116.453H116.416H116.38H116.344H116.308H116.272H116.236H116.201H116.165H116.13H116.095H116.06H116.024H115.99H115.955H115.92H115.885H115.851H115.817H115.782H115.748H115.714H115.68H115.647H115.613H115.579H115.546H115.513H115.48H115.446H115.414H115.381H115.348H115.315H115.283H115.251H115.218H115.186H115.154H115.123H115.091H115.059H115.028H114.996H114.965H114.934H114.903H114.872H114.841H114.811H114.78H114.75H114.72H114.69H114.66H114.63H114.6H114.57H114.541H114.512H114.482H114.453H114.424H114.396H114.367H114.338H114.31H114.282H114.253H114.225H114.197H114.17H114.142H114.114H114.087H114.06H114.033H114.006H113.979H113.952H113.925H113.899H113.872H113.846H113.82H113.794H113.768H113.743H113.717H113.692H113.667H113.641H113.616H113.592H113.567H113.542H113.518H113.494H113.469H113.445H113.421H113.398H113.374H113.351H113.327H113.304H113.281H113.258H113.235H113.213H113.19H113.168H113.146H113.124H113.102H113.08H113.058H113.037H113.015H112.994H112.973H112.952H112.931H112.911H112.89H112.87H112.85H112.83H112.81H112.79H112.77H112.751H112.732H112.713H112.693H112.675H112.656H112.637H112.619H112.601H112.582H112.564H112.547H112.529H112.511H112.494H112.477H112.46H112.443H112.426H112.409H112.393H112.377H112.36H112.344H112.329H112.313H112.297H112.282H112.267H112.252H112.237H112.222H112.207H112.193H112.178H112.164H112.15H112.136H112.123H112.109H112.096H112.083H112.07Z" fill="#8E3AE2" stroke="black"/>
<path d="M83.249 112.532H83.245C83.5076 105.724 89.1092 100.286 95.9809 100.286C102.853 100.286 108.454 105.724 108.717 112.532H108.713H108.701H108.69H108.678H108.667H108.655H108.643H108.631H108.619H108.607H108.594H108.582H108.569H108.556H108.543H108.531H108.517H108.504H108.491H108.478H108.464H108.45H108.437H108.423H108.409H108.395H108.38H108.366H108.352H108.337H108.322H108.308H108.293H108.278H108.263H108.248H108.232H108.217H108.201H108.186H108.17H108.154H108.138H108.122H108.106H108.089H108.073H108.056H108.04H108.023H108.006H107.989H107.972H107.955H107.938H107.92H107.903H107.885H107.868H107.85H107.832H107.814H107.796H107.777H107.759H107.741H107.722H107.703H107.685H107.666H107.647H107.628H107.609H107.589H107.57H107.551H107.531H107.511H107.491H107.472H107.452H107.432H107.411H107.391H107.371H107.35H107.33H107.309H107.288H107.267H107.246H107.225H107.204H107.183H107.161H107.14H107.118H107.096H107.075H107.053H107.031H107.009H106.987H106.964H106.942H106.92H106.897H106.874H106.852H106.829H106.806H106.783H106.76H106.736H106.713H106.69H106.666H106.643H106.619H106.595H106.571H106.547H106.523H106.499H106.475H106.45H106.426H106.401H106.377H106.352H106.327H106.302H106.277H106.252H106.227H106.202H106.176H106.151H106.126H106.1H106.074H106.048H106.022H105.997H105.97H105.944H105.918H105.892H105.865H105.839H105.812H105.786H105.759H105.732H105.705H105.678H105.651H105.624H105.596H105.569H105.541H105.514H105.486H105.459H105.431H105.403H105.375H105.347H105.319H105.291H105.262H105.234H105.205H105.177H105.148H105.12H105.091H105.062H105.033H105.004H104.975H104.946H104.916H104.887H104.857H104.828H104.798H104.769H104.739H104.709H104.679H104.649H104.619H104.589H104.559H104.528H104.498H104.467H104.437H104.406H104.376H104.345H104.314H104.283H104.252H104.221H104.19H104.159H104.127H104.096H104.064H104.033H104.001H103.97H103.938H103.906H103.874H103.842H103.81H103.778H103.746H103.713H103.681H103.649H103.616H103.584H103.551H103.518H103.485H103.453H103.42H103.387H103.354H103.32H103.287H103.254H103.221H103.187H103.154H103.12H103.087H103.053H103.019H102.985H102.951H102.917H102.883H102.849H102.815H102.781H102.747H102.712H102.678H102.643H102.609H102.574H102.539H102.505H102.47H102.435H102.4H102.365H102.33H102.295H102.259H102.224H102.189H102.153H102.118H102.082H102.047H102.011H101.975H101.939H101.904H101.868H101.832H101.796H101.76H101.723H101.687H101.651H101.615H101.578H101.542H101.505H101.469H101.432H101.395H101.358H101.322H101.285H101.248H101.211H101.174H101.137H101.1H101.062H101.025H100.988H100.95H100.913H100.875H100.838H100.8H100.762H100.725H100.687H100.649H100.611H100.573H100.535H100.497H100.459H100.421H100.383H100.344H100.306H100.268H100.229H100.191H100.152H100.114H100.075H100.036H99.9974H99.9586H99.9197H99.8808H99.8419H99.8029H99.7638H99.7247H99.6855H99.6463H99.607H99.5677H99.5284H99.489H99.4495H99.41H99.3704H99.3308H99.2912H99.2515H99.2117H99.1719H99.1321H99.0922H99.0523H99.0123H98.9722H98.9322H98.892H98.8519H98.8117H98.7714H98.7311H98.6907H98.6504H98.6099H98.5694H98.5289H98.4883H98.4477H98.407H98.3663H98.3256H98.2848H98.244H98.2031H98.1622H98.1212H98.0802H98.0392H97.9981H97.957H97.9158H97.8746H97.8333H97.792H97.7507H97.7093H97.6679H97.6265H97.585H97.5434H97.5019H97.4603H97.4186H97.3769H97.3352H97.2934H97.2516H97.2098H97.1679H97.126H97.084H97.0421H97H96.958H96.9159H96.8737H96.8316H96.7894H96.7471H96.7048H96.6625H96.6202H96.5778H96.5354H96.4929H96.4504H96.4079H96.3654H96.3228H96.2802H96.2375H96.1948H96.1521H96.1094H96.0666H96.0238H95.9809H95.9381H95.8952H95.8525H95.8097H95.767H95.7243H95.6817H95.639H95.5964H95.5539H95.5114H95.4689H95.4264H95.384H95.3416H95.2993H95.257H95.2147H95.1725H95.1303H95.0881H95.046H95.0039H94.9618H94.9198H94.8778H94.8358H94.7939H94.752H94.7102H94.6684H94.6266H94.5849H94.5432H94.5016H94.46H94.4184H94.3769H94.3354H94.2939H94.2525H94.2111H94.1698H94.1285H94.0873H94.046H94.0049H93.9637H93.9227H93.8816H93.8406H93.7996H93.7587H93.7179H93.677H93.6362H93.5955H93.5548H93.5141H93.4735H93.4329H93.3924H93.3519H93.3115H93.2711H93.2307H93.1904H93.1502H93.1099H93.0698H93.0296H92.9896H92.9495H92.9096H92.8696H92.8297H92.7899H92.7501H92.7103H92.6706H92.631H92.5914H92.5518H92.5123H92.4729H92.4334H92.3941H92.3548H92.3155H92.2763H92.2371H92.198H92.159H92.12H92.081H92.0421H92.0032H91.9644H91.9257H91.887H91.8483H91.8097H91.7712H91.7327H91.6942H91.6558H91.6175H91.5792H91.541H91.5028H91.4647H91.4266H91.3886H91.3507H91.3128H91.2749H91.2371H91.1994H91.1617H91.1241H91.0865H91.049H91.0116H90.9742H90.9368H90.8995H90.8623H90.8251H90.788H90.751H90.714H90.677H90.6402H90.6033H90.5666H90.5299H90.4932H90.4567H90.4201H90.3837H90.3473H90.3109H90.2746H90.2384H90.2023H90.1662H90.1301H90.0941H90.0582H90.0224H89.9866H89.9508H89.9152H89.8796H89.844H89.8086H89.7731H89.7378H89.7025H89.6673H89.6321H89.597H89.562H89.527H89.4921H89.4573H89.4225H89.3878H89.3532H89.3186H89.2841H89.2497H89.2153H89.181H89.1468H89.1126H89.0785H89.0445H89.0105H88.9766H88.9428H88.909H88.8753H88.8417H88.8081H88.7746H88.7412H88.7079H88.6746H88.6414H88.6083H88.5752H88.5422H88.5093H88.4764H88.4436H88.4109H88.3783H88.3457H88.3132H88.2808H88.2484H88.2162H88.184H88.1518H88.1198H88.0878H88.0559H88.024H87.9923H87.9606H87.929H87.8974H87.866H87.8346H87.8033H87.772H87.7409H87.7098H87.6788H87.6478H87.617H87.5862H87.5555H87.5249H87.4943H87.4639H87.4335H87.4032H87.3729H87.3428H87.3127H87.2827H87.2528H87.2229H87.1931H87.1635H87.1339H87.1043H87.0749H87.0455H87.0163H86.987H86.9579H86.9289H86.8999H86.8711H86.8423H86.8136H86.7849H86.7564H86.7279H86.6995H86.6712H86.643H86.6149H86.5868H86.5589H86.531H86.5032H86.4755H86.4479H86.4203H86.3929H86.3655H86.3382H86.311H86.2839H86.2569H86.2299H86.2031H86.1763H86.1496H86.123H86.0965H86.0701H86.0438H86.0175H85.9914H85.9653H85.9393H85.9134H85.8876H85.8619H85.8363H85.8108H85.7853H85.76H85.7347H85.7096H85.6845H85.6595H85.6346H85.6098H85.5851H85.5604H85.5359H85.5115H85.4871H85.4629H85.4387H85.4146H85.3907H85.3668H85.343H85.3193H85.2957H85.2722H85.2488H85.2254H85.2022H85.1791H85.1561H85.1331H85.1103H85.0875H85.0649H85.0423H85.0198H84.9975H84.9752H84.953H84.931H84.909H84.8871H84.8653H84.8437H84.8221H84.8006H84.7792H84.7579H84.7367H84.7156H84.6946H84.6737H84.653H84.6323H84.6117H84.5912H84.5708H84.5505H84.5303H84.5102H84.4902H84.4704H84.4506H84.4309H84.4113H84.3918H84.3725H84.3532H84.334H84.315H84.296H84.2771H84.2584H84.2397H84.2212H84.2027H84.1844H84.1662H84.148H84.13H84.1121H84.0943H84.0766H84.059H84.0415H84.0241H84.0068H83.9897H83.9726H83.9556H83.9388H83.9221H83.9054H83.8889H83.8725H83.8562H83.84H83.8239H83.8079H83.792H83.7763H83.7606H83.7451H83.7296H83.7143H83.6991H83.684H83.669H83.6541H83.6393H83.6247H83.6101H83.5957H83.5814H83.5672H83.5531H83.5391H83.5252H83.5115H83.4978H83.4843H83.4709H83.4576H83.4444H83.4313H83.4183H83.4055H83.3928H83.3801H83.3676H83.3553H83.343H83.3308H83.3188H83.3069H83.2951H83.2834H83.2718H83.2604H83.249Z" fill="#8E3AE2" stroke="black"/>
</svg>
