<svg width="1680" height="1142" viewBox="0 0 1680 1142" fill="none" xmlns="http://www.w3.org/2000/svg">
<path d="M908.914 623.963L1031.03 832.595C917.075 847.396 888.046 960.086 889.561 962.327H1274.22C1261.81 845.922 1141.26 822.394 1141.26 822.394L1055.4 673.32" fill="#D8FF6A"/>
<path d="M727.19 540.788C745.885 357.498 851.438 375.994 851.438 375.994C851.438 375.994 928.06 75.1758 1090.39 101.552C1188.78 117.541 1223.72 386.673 1217.43 519.196C1214.69 577.376 1185.29 631.938 1133.18 657.614C1099.64 674.128 1025.53 680.547 969.282 662.866C826.81 617.991 850.623 439.367 850.623 439.367L817.378 588.405C834.03 605.911 860.871 638.882 862.501 695.019C862.792 706.165 871.176 707.915 860.288 710.308L859.415 707.332C755.836 548.315 545.068 565.938 545.068 565.938C657.497 503.907 727.19 540.788 727.19 540.788Z" fill="#D8FF6A"/>
<path d="M1216.85 536.922C1472.87 666.21 1629.41 831.43 1590.91 955.302C1539.61 1120.52 1161.06 1149.82 745.361 1020.76C329.66 891.706 34.3371 653.106 85.6445 487.886C131.419 340.545 437.284 301.292 797.717 386.028" stroke="black" stroke-width="6.98852" stroke-miterlimit="10" stroke-linecap="round"/>
<path d="M408.978 525.568H285.572V1138.17H408.978V525.568Z" fill="#B98EFF" stroke="black" stroke-width="6.98852" stroke-miterlimit="10" stroke-linecap="round"/>
<path d="M625.1 661.611H501.694V1138.17H625.1V661.611Z" fill="#B98EFF" stroke="black" stroke-width="6.98852" stroke-miterlimit="10" stroke-linecap="round"/>
<path d="M841.16 822.174H717.754V1138.17H841.16V822.174Z" fill="#B98EFF" stroke="black" stroke-width="6.98852" stroke-miterlimit="10" stroke-linecap="round"/>
<path d="M1057.22 964.214H933.813V1138.17H1057.22V964.214Z" fill="#B98EFF" stroke="black" stroke-width="6.98852" stroke-miterlimit="10" stroke-linecap="round"/>
<path d="M1273.28 1051.16H1149.88V1138.17H1273.28V1051.16Z" fill="#B98EFF" stroke="black" stroke-width="6.98852" stroke-miterlimit="10" stroke-linecap="round"/>
<path d="M853.331 376.827C853.331 376.827 930.03 76.6115 1092.34 102.935C1190.76 118.892 1225.7 387.484 1219.41 519.742C1216.68 577.805 1187.27 632.257 1135.14 657.882C1101.6 674.363 1027.46 680.769 971.204 663.123C828.697 618.339 848.73 464.882 848.73 464.882" stroke="black" stroke-width="6.98852" stroke-miterlimit="10" stroke-linecap="round" stroke-linejoin="round"/>
<path d="M1055.3 100.49C1055.3 100.49 1042.37 194.835 1147.08 219.528C1147.08 219.528 1155.94 254.179 1190.53 259.77C1225.12 265.361 1233.74 170.084 1176.96 156.282C1176.96 156.282 1180.34 153.894 1183.48 147.896C1192.97 129.725 1183.83 107.945 1165.14 99.5584C1126.18 82.1453 1068.05 93.4435 1068.05 93.4435C1057.16 55.2395 987.279 -18.3732 956.937 10.5127C926.595 39.3986 991.472 87.5614 991.472 87.5614C969.691 105.033 988.502 133.045 988.91 132.696C988.91 132.696 1019.19 108.003 1055.3 100.49Z" fill="black" stroke="black" stroke-width="6.98852" stroke-miterlimit="10" stroke-linecap="round" stroke-linejoin="round"/>
<path d="M1020.59 349.572C1055.3 349.572 1083.43 321.438 1083.43 286.733C1083.43 252.029 1055.3 223.895 1020.59 223.895C985.886 223.895 957.752 252.029 957.752 286.733C957.752 321.438 985.886 349.572 1020.59 349.572Z" fill="white" stroke="black" stroke-width="6.98852" stroke-miterlimit="10" stroke-linecap="round" stroke-linejoin="round"/>
<path d="M1059.79 335.828C1032.65 357.492 993.104 353.066 971.439 325.927C949.775 298.789 954.201 259.245 981.34 237.581L1059.79 335.828Z" fill="black"/>
<path d="M908.307 629.287L1057.22 877.205" stroke="black" stroke-width="6.98852" stroke-miterlimit="10" stroke-linecap="round" stroke-linejoin="round"/>
<path d="M1054.66 677.976L1171.14 877.905" stroke="black" stroke-width="6.98852" stroke-miterlimit="10" stroke-linecap="round" stroke-linejoin="round"/>
<path d="M1030.32 835.274C916.462 849.891 887.459 961.184 888.974 963.397H1273.28C1260.88 848.435 1140.44 825.198 1140.44 825.198" stroke="black" stroke-width="6.98852" stroke-miterlimit="10" stroke-linecap="round" stroke-linejoin="round"/>
<path d="M729.111 541.232C743.088 367.16 835.919 375.08 835.919 375.08C835.919 375.08 928.401 373.566 1020.59 480.141" stroke="black" stroke-width="6.98852" stroke-miterlimit="10" stroke-linecap="round" stroke-linejoin="round"/>
<path d="M755.671 555.735C755.671 555.735 672.042 489.285 546.947 566.333C546.947 566.333 757.768 548.746 861.314 707.444" stroke="black" stroke-width="6.98852" stroke-miterlimit="10" stroke-linecap="round" stroke-linejoin="round"/>
<path d="M806.8 574.661C823.456 592.132 862.767 639.188 864.397 695.213C864.689 706.336 856.943 716.062 846.053 718.45C821.476 723.808 765.918 719.964 666.04 675.062C572.918 632.141 529.647 582.872 546.886 566.391" stroke="black" stroke-width="6.98852" stroke-miterlimit="10" stroke-linecap="round" stroke-linejoin="round"/>
<path d="M629.527 656.544C715.486 710.705 847.336 736.329 859.857 709.482C865.099 698.242 790.03 610.885 689.57 583.921L606.349 567.789C599.477 566.566 578.162 566.275 571.231 565.868C540.424 563.888 538.91 572.798 547.005 588.58C551.372 597.083 558.07 607.158 565.757 612.865L629.527 656.544Z" fill="black"/>
<path d="M757.009 553.114L729.288 522.422L728.531 539.952L757.009 553.114Z" fill="black"/>
<path d="M857.937 469.31L855.375 439.667L848.794 462.497L857.937 469.31Z" fill="black"/>
<path d="M852.52 440.074L819.267 588.814" stroke="black" stroke-width="6.98852" stroke-miterlimit="10" stroke-linecap="round" stroke-linejoin="round"/>
<path d="M847.743 461.447L968.528 583.688" stroke="black" stroke-width="6.98852" stroke-miterlimit="10" stroke-linecap="round" stroke-linejoin="round"/>
<path d="M967.01 586.018L849.079 464.068L847.157 487.363L967.01 586.018Z" fill="black"/>
<path d="M894.912 335.188C929.617 335.188 957.75 307.055 957.75 272.35C957.75 237.645 929.617 209.512 894.912 209.512C860.207 209.512 832.073 237.645 832.073 272.35C832.073 307.055 860.207 335.188 894.912 335.188Z" fill="white" stroke="black" stroke-width="6.98852" stroke-miterlimit="10" stroke-linecap="round" stroke-linejoin="round"/>
<path d="M934.108 321.502C906.969 343.167 867.426 338.741 845.762 311.602C824.097 284.463 828.523 244.92 855.662 223.255L934.108 321.502Z" fill="black"/>
<path d="M385.044 420.621C432.904 420.621 471.702 381.823 471.702 333.963C471.702 286.104 432.904 247.306 385.044 247.306C337.185 247.306 298.387 286.104 298.387 333.963C298.387 381.823 337.185 420.621 385.044 420.621Z" fill="white" stroke="black" stroke-width="6.98852" stroke-miterlimit="10" stroke-linecap="round" stroke-linejoin="round"/>
<path d="M382.308 284.927V342.408L421.036 356.851" stroke="black" stroke-width="6.98852" stroke-miterlimit="10" stroke-linecap="round" stroke-linejoin="round"/>
<path d="M261.636 882.855C309.496 882.855 348.294 844.057 348.294 796.197C348.294 748.338 309.496 709.54 261.636 709.54C213.776 709.54 174.979 748.338 174.979 796.197C174.979 844.057 213.776 882.855 261.636 882.855Z" fill="white" stroke="black" stroke-width="6.98852" stroke-miterlimit="10" stroke-linecap="round" stroke-linejoin="round"/>
<path d="M302.284 767.72L302.285 767.722C306.508 775.72 306.297 784.183 303.325 792.692C300.328 801.276 294.573 809.715 288.051 817.241C281.553 824.74 274.444 831.162 268.938 835.721C266.19 837.996 263.855 839.796 262.212 841.024C262.01 841.174 261.82 841.316 261.64 841.449C261.46 841.316 261.27 841.175 261.069 841.025C259.428 839.797 257.094 837.996 254.349 835.721C248.847 831.162 241.743 824.74 235.249 817.242C228.731 809.715 222.977 801.276 219.977 792.691C217.003 784.182 216.784 775.719 220.992 767.723C224.022 762.018 227.436 760.534 230.629 760.559C234.273 760.589 238.561 762.585 242.971 765.81C247.287 768.965 251.255 772.951 254.179 776.205C255.631 777.822 256.805 779.234 257.612 780.237C258.015 780.739 258.325 781.137 258.532 781.406C258.636 781.54 258.714 781.642 258.764 781.709L258.818 781.781L258.83 781.797L258.831 781.798L258.832 781.799L258.832 781.799L261.638 785.585L264.445 781.8L264.445 781.8L264.446 781.799L264.447 781.798L264.459 781.782L264.513 781.709C264.564 781.642 264.642 781.54 264.745 781.405C264.953 781.136 265.264 780.737 265.668 780.235C266.476 779.23 267.652 777.816 269.107 776.197C272.035 772.939 276.009 768.947 280.329 765.787C284.743 762.559 289.032 760.562 292.671 760.535C294.401 760.522 296.014 760.952 297.54 761.972C299.097 763.014 300.737 764.788 302.284 767.72Z" fill="#FF6A2A" stroke="black" stroke-width="6.99"/>
<path d="M4.10938 569.128L84.128 489.11L164.205 569.128" stroke="black" stroke-width="6.98852" stroke-miterlimit="10" stroke-linecap="round"/>
<path d="M1402.11 472.164L1291.57 746.638" stroke="black" stroke-width="6.98852" stroke-miterlimit="10" stroke-linecap="round" stroke-linejoin="round"/>
<path d="M1311.84 528.829L1381.9 689.973" stroke="black" stroke-width="6.98852" stroke-miterlimit="10" stroke-linecap="round" stroke-linejoin="round"/>
<path d="M1427.97 575.593L1265.77 643.207" stroke="black" stroke-width="6.98852" stroke-miterlimit="10" stroke-linecap="round" stroke-linejoin="round"/>
<path d="M1674.66 889.201L1505.77 937.014L1473.1 816.812L1641.64 771.852L1674.66 889.201Z" fill="white"/>
<path d="M1642.57 770.902L1473.18 816.961L1505.89 937.227L1675.27 891.169L1642.57 770.902Z" stroke="black" stroke-width="7.63904" stroke-miterlimit="10" stroke-linecap="round" stroke-linejoin="round"/>
<path d="M1473.1 816.812L1575.83 860.141L1642.45 770.746" stroke="black" stroke-width="7.63904" stroke-miterlimit="10" stroke-linecap="round" stroke-linejoin="round"/>
</svg>
